<svg width="36" height="36" viewBox="0 0 36 36" fill="none" xmlns="http://www.w3.org/2000/svg">
<path d="M20.6188 35.1647C22.2315 34.9093 23.3678 33.2937 23.1325 31.8083L21.3143 20.3283L32.5608 18.547C34.1098 18.3017 35.2528 16.7285 34.9974 15.1158C34.742 13.5031 33.1688 12.3601 31.6197 12.6055L20.3732 14.3868L18.5583 2.92802C18.3096 1.35775 16.7398 0.235999 15.1271 0.491427C13.5144 0.746855 12.3681 2.2988 12.6168 3.86907L14.4316 15.3278L3.18511 17.1091C1.6785 17.3477 0.47187 18.931 0.727298 20.5437C0.982726 22.1564 2.61955 23.2893 4.12617 23.0506L15.3727 21.2694L17.1909 32.7493C17.4262 34.2347 19.0061 35.4201 20.6188 35.1647Z" fill="white"/>
</svg>
