<svg width="36" height="39" viewBox="0 0 36 39" fill="none" xmlns="http://www.w3.org/2000/svg">
<path d="M4.70303 33.4528L32.7605 29.0089C34.7397 28.6954 35.8185 27.3223 35.5457 25.5996C35.2322 23.6204 33.4219 22.2727 31.5645 21.1016C30.0409 20.1406 29.3992 17.631 28.6002 14.9584C27.2257 9.12703 24.5219 5.103 19.9685 4.22737C18.7964 2.04598 16.5077 0.642598 13.942 1.04896C11.3947 1.45242 9.63332 3.49728 9.21102 5.9312C5.15107 8.17104 3.8231 12.8336 4.29957 18.8073C4.38386 21.593 4.53075 24.181 3.3787 25.5658C1.97407 27.2536 0.687191 29.0918 1.00067 31.071C1.27351 32.7937 2.72379 33.7663 4.70303 33.4528ZM19.8982 38.6544C23.1602 38.1378 25.1644 35.4909 24.9634 32.7987L13.2713 34.6506C13.9121 37.2731 16.6544 39.1682 19.8982 38.6544Z" fill="black"/>
</svg>
