<svg width="56" height="43" viewBox="0 0 56 43" fill="none" xmlns="http://www.w3.org/2000/svg">
<path d="M31.9825 38.2788C33.2103 38.0844 34.3453 37.3034 36.6361 36.9406C38.9635 36.572 39.7711 37.0452 41.5304 36.7666C44.0595 36.366 45.3881 35.0284 45.0862 33.1225C44.6102 30.117 41.2649 28.092 35.9503 28.9337C33.183 29.372 32.101 30.013 30.556 30.5771L27.8194 26.4643C25.1368 22.4557 21.1878 20.7705 17.0461 21.4265L14.9386 21.7603C14.0772 21.8967 13.4578 21.5439 13.333 20.7559C13.124 19.4364 14.6844 18.8511 16.4438 18.5725C21.8317 17.7191 26.6528 19.811 30.1599 25.2295L31.7507 27.6827C32.8675 27.2616 34.1146 26.9513 35.4158 26.7453C36.4421 26.5827 37.4433 26.4993 38.5044 26.5566C39.5082 25.7777 40.6499 24.9206 41.8986 24.0277C44.1264 25.0463 46.52 25.9258 49.8371 25.4004C53.9422 24.7503 55.9757 23.0005 55.2413 18.3639C54.3619 12.8111 49.7645 8.69243 43.7516 9.8702L38.6096 4.44768C35.5937 1.29966 32.0212 0.212316 28.8324 0.717367C26.2484 1.12663 22.0949 3.2498 22.417 5.28401C22.626 6.6035 25.8322 8.1058 28.2606 9.20526L38.9691 13.9528C38.2885 14.7557 37.7534 15.2913 36.6905 15.4596C35.206 15.6948 33.4124 14.9268 31.3382 14.1658C25.2213 11.6028 21.0386 9.39103 15.046 10.3402C9.36483 11.24 5.07802 15.1313 3.81692 22.4698C1.90228 22.7166 0.661504 24.1343 0.943055 25.9119C1.25363 27.8728 3.0483 28.8848 5.27829 28.494C8.57525 32.349 12.6126 33.2875 18.0005 32.4342C18.2937 32.3877 18.6053 32.3384 18.9139 32.2707L27.0528 37.1622C29.0376 38.4259 30.553 38.5052 31.9825 38.2788ZM47.4302 18.9811C46.5139 19.1263 45.6194 18.4601 45.4742 17.5438C45.3204 16.5725 45.9624 15.6443 46.9154 15.4933C47.85 15.3453 48.7416 15.9931 48.8867 16.9094C49.0377 17.8624 48.3832 18.8302 47.4302 18.9811ZM18.6291 41.8591C21.7996 41.357 23.7621 40.4637 25.3077 39.073L19.3244 35.4557C19.0891 35.5117 18.7988 35.5765 18.4872 35.6258C17.6626 35.7565 16.0642 35.7466 14.5981 35.9788C12.6922 36.2807 11.6606 37.4773 11.9015 38.9984C12.2643 41.2892 14.9089 42.4483 18.6291 41.8591Z" fill="black"/>
</svg>
