<svg width="38" height="42" viewBox="0 0 38 42" fill="none" xmlns="http://www.w3.org/2000/svg">
<path d="M21.8623 41.0202C31.8867 39.4325 38.8274 29.8795 37.2397 19.8551C36.6243 15.9699 34.8275 12.5724 32.2681 9.93446L33.4866 8.25739C33.903 7.68421 34.0725 7.09378 33.9767 6.48902C33.7881 5.29781 32.7054 4.5112 31.5142 4.69987C30.7995 4.81307 30.3366 5.09303 29.8989 5.65079L28.798 7.12138C25.7296 5.18398 22.1051 4.12367 18.3123 4.25474L18.0162 2.38546C17.8189 1.13928 16.6754 0.324727 15.4475 0.519201C14.2563 0.70787 13.3839 1.84171 13.5813 3.08789L13.8773 4.95717C5.05621 7.50024 -0.771598 16.3697 0.697114 25.6428C2.28483 35.6673 11.8378 42.6079 21.8623 41.0202ZM19.4879 26.0293C17.6736 26.3167 15.9937 25.0799 15.7063 23.2656C15.5234 22.111 15.9744 21.044 16.9328 20.2159L15.6702 12.244C15.528 11.346 16.1141 10.5393 17.012 10.397C17.91 10.2548 18.7167 10.8409 18.8589 11.7389L20.1245 19.7292C21.2861 20.1839 22.0447 21.0594 22.2305 22.2323C22.5207 24.0649 21.3022 25.742 19.4879 26.0293Z" fill="black"/>
</svg>
